<?xml version="1.0" encoding="utf-8"?>
<!-- Generator: Adobe Illustrator 25.2.0, SVG Export Plug-In . SVG Version: 6.00 Build 0)  -->
<svg version="1.1" id="Layer_1" xmlns="http://www.w3.org/2000/svg" xmlns:xlink="http://www.w3.org/1999/xlink" x="0px" y="0px"
	 viewBox="0 0 3624.2 783" style="enable-background:new 0 0 3624.2 783;" xml:space="preserve">
<style type="text/css">
	.st0{display:none;fill:#FFFFFF;}
	.st1{fill:#FFFFFF;}
	.st2{fill:#6A5DA9;}
	.st3{fill:#83D2E1;}
</style>
<rect class="st0" width="4000" height="4000"/>
<g>
	<g>
		<polygon class="st1" points="920.6,630 840.5,443.2 816,443.2 908.5,658.4 932.6,658.4 1025.1,443.2 1000.6,443.2 		"/>
		<rect x="1141.8" y="335.6" class="st1" width="22.4" height="36.6"/>
		<rect x="1141.8" y="443.2" class="st1" width="22.4" height="215.2"/>
		<path class="st1" d="M1485.8,471c-10.2-10.2-22.1-18.2-35.7-24.1c-13.6-5.9-28.2-8.8-43.7-8.8c-15.5,0-30.1,2.9-43.7,8.8
			c-13.6,5.9-25.5,13.9-35.7,24.1c-10.2,10.2-18.2,22.2-24.1,35.9c-5.9,13.8-8.8,28.4-8.8,43.9v107.6h22.4V550.8
			c0-12.3,2.4-24,7.1-35.1c4.7-11,11.2-20.6,19.4-28.6c8.2-8,17.7-14.4,28.6-19.2c10.9-4.7,22.5-7.1,34.9-7.1
			c12.3,0,24,2.4,35.1,7.1c11,4.7,20.6,11.1,28.6,19.2c8,8,14.4,17.6,19.2,28.6c4.7,11,7.1,22.7,7.1,35.1v107.6h22.4V550.8
			c0-15.5-2.9-30.1-8.8-43.9C1504.1,493.2,1496,481.2,1485.8,471z"/>
		<path class="st1" d="M1787.3,578.4c0,8.6-1.7,16.7-4.9,24.3c-3.3,7.6-7.7,14.2-13.3,19.8c-5.6,5.6-12.1,10-19.6,13.1
			c-7.5,3.2-15.5,4.7-24.1,4.7s-16.6-1.6-24.1-4.7c-7.5-3.2-14-7.5-19.6-13.1c-5.6-5.6-10-12.2-13.1-19.8
			c-3.2-7.6-4.7-15.7-4.7-24.3V442.8H1641v135.6c0,11.8,2.2,22.7,6.7,32.9c4.4,10.2,10.5,19.1,18.1,26.7
			c7.6,7.6,16.5,13.6,26.7,18.1c10.2,4.4,21.2,6.7,32.9,6.7c12.3,0,23.8-2.4,34.4-7.3c10.6-4.9,19.8-11.5,27.5-19.8v46.9
			c0,8.6-1.7,16.6-4.9,24.1c-3.3,7.5-7.7,14-13.3,19.6c-5.6,5.6-12.1,10-19.6,13.3c-7.5,3.3-15.5,4.9-24.1,4.9v22.4
			c11.8,0,22.7-2.2,32.9-6.7c10.2-4.5,19.1-10.5,26.7-18.1c7.6-7.6,13.6-16.5,18.1-26.7c4.4-10.2,6.7-21.2,6.7-32.9V578.4V442.8
			h-22.4V578.4z"/>
		<path class="st1" d="M2134,470.6c-10.2-10.2-22.2-18.2-35.9-24.1c-13.8-5.9-28.4-8.8-43.9-8.8c-15.5,0-30.1,2.9-43.7,8.8
			c-13.6,5.9-25.5,13.9-35.7,24.1c-10.2,10.2-18.2,22.2-24.1,35.9c-5.9,13.8-8.8,28.4-8.8,43.9c0,15.5,2.9,30.1,8.8,43.7
			c5.9,13.6,13.9,25.5,24.1,35.7c10.2,10.2,22.1,18.2,35.7,24.1c13.6,5.9,28.2,8.8,43.7,8.8c18.6,0,35.8-4,51.4-12.1
			c15.6-8,28.5-18.9,38.5-32.7v40h22.8V550.4c0-15.5-2.9-30.1-8.8-43.9C2152.2,492.7,2144.2,480.8,2134,470.6z M2137,585.3
			c-4.7,10.9-11.1,20.4-19.2,28.6c-8,8.2-17.6,14.6-28.6,19.4c-11,4.7-22.7,7.1-35.1,7.1c-12.3,0-24-2.4-34.9-7.1
			c-10.9-4.7-20.4-11.2-28.6-19.4c-8.2-8.2-14.6-17.7-19.4-28.6c-4.7-10.9-7.1-22.5-7.1-34.9c0-12.3,2.4-24,7.1-35.1
			c4.7-11,11.2-20.6,19.4-28.6c8.2-8,17.7-14.4,28.6-19.2c10.9-4.7,22.5-7.1,34.9-7.1c12.3,0,24,2.4,35.1,7.1
			c11,4.7,20.6,11.1,28.6,19.2c8,8,14.4,17.6,19.2,28.6c4.7,11,7.1,22.7,7.1,35.1C2144.1,562.7,2141.7,574.4,2137,585.3z"/>
		<polygon class="st1" points="2494.4,343.8 2472,343.8 2472,658.4 2483.2,658.4 2672.1,658.4 2672.1,636 2494.4,636 		"/>
		<path class="st1" d="M2966.3,470.6c-10.2-10.2-22.2-18.2-35.9-24.1c-13.8-5.9-28.4-8.8-43.9-8.8c-15.5,0-30.1,2.9-43.7,8.8
			c-13.6,5.9-25.5,13.9-35.7,24.1c-10.2,10.2-18.2,22.2-24.1,35.9c-5.9,13.8-8.8,28.4-8.8,43.9c0,15.5,2.9,30.1,8.8,43.7
			c5.9,13.6,13.9,25.5,24.1,35.7c10.2,10.2,22.1,18.2,35.7,24.1c13.6,5.9,28.2,8.8,43.7,8.8c18.6,0,35.8-4,51.4-12.1
			c15.6-8,28.5-18.9,38.5-32.7v40h22.8V550.4c0-15.5-2.9-30.1-8.8-43.9C2984.5,492.7,2976.5,480.8,2966.3,470.6z M2969.3,585.3
			c-4.7,10.9-11.1,20.4-19.2,28.6c-8,8.2-17.6,14.6-28.6,19.4c-11,4.7-22.7,7.1-35.1,7.1c-12.3,0-24-2.4-34.9-7.1
			c-10.9-4.7-20.4-11.2-28.6-19.4c-8.2-8.2-14.6-17.7-19.4-28.6c-4.7-10.9-7.1-22.5-7.1-34.9c0-12.3,2.4-24,7.1-35.1
			c4.7-11,11.2-20.6,19.4-28.6c8.2-8,17.7-14.4,28.6-19.2c10.9-4.7,22.5-7.1,34.9-7.1c12.3,0,24,2.4,35.1,7.1
			c11,4.7,20.6,11.1,28.6,19.2c8,8,14.4,17.6,19.2,28.6c4.7,11,7.1,22.7,7.1,35.1C2976.4,562.7,2974.1,574.4,2969.3,585.3z"/>
		<path class="st1" d="M3316.6,471.4c-10.2-10.2-22.2-18.2-35.9-24.1c-13.8-5.9-28.4-8.8-43.9-8.8c-18.4,0-35.4,4.1-51,12.3
			c-15.6,8.2-28.6,19.2-38.9,32.9V336.1h-22.4v215.2c0,15.5,2.9,30.1,8.8,43.7c5.9,13.6,13.9,25.5,24.1,35.7
			c10.2,10.2,22.1,18.2,35.7,24.1c13.6,5.9,28.2,8.8,43.7,8.8s30.1-2.9,43.9-8.8c13.8-5.9,25.7-13.9,35.9-24.1
			c10.2-10.2,18.2-22.1,24.1-35.7c5.9-13.6,8.8-28.2,8.8-43.7c0-15.5-2.9-30.1-8.8-43.9C3334.8,493.6,3326.8,481.6,3316.6,471.4z
			 M3319.6,586.1c-4.7,10.9-11.1,20.4-19.2,28.6c-8,8.2-17.6,14.6-28.6,19.4c-11,4.7-22.7,7.1-35.1,7.1c-12.3,0-24-2.4-34.9-7.1
			c-10.9-4.7-20.4-11.2-28.6-19.4c-8.2-8.2-14.6-17.7-19.4-28.6c-4.7-10.9-7.1-22.5-7.1-34.9c0-12.3,2.4-24,7.1-35.1
			c4.7-11,11.2-20.6,19.4-28.6c8.2-8,17.7-14.4,28.6-19.2c10.9-4.7,22.5-7.1,34.9-7.1c12.3,0,24,2.4,35.1,7.1
			c11,4.7,20.6,11.1,28.6,19.2c8,8,14.4,17.6,19.2,28.6c4.7,11,7.1,22.7,7.1,35.1C3326.7,563.6,3324.4,575.2,3319.6,586.1z"/>
		<path class="st1" d="M3604.5,569.5c-3-6.5-7-12.1-12.1-17c-5-4.9-10.9-8.7-17.6-11.4c-6.7-2.7-13.8-4.1-21.3-4.1h-0.4h-31.8
			c-8.9,0-16.6-3-23-9c-6.5-6-10-13.5-10.5-22.4c-0.6-3.7-0.6-7.5,0-11.2c0.6-8.9,4.1-16.4,10.5-22.4c6.5-6,14.1-9,23-9h80.9v-22.4
			h-80.9c-7.5,0-14.6,1.4-21.3,4.1c-6.7,2.7-12.6,6.5-17.6,11.2c-5,4.7-9,10.3-12.1,16.8c-3,6.5-4.7,13.4-5,20.9
			c-0.6,4.6-0.6,8.9,0,12.9c0.3,7.5,1.9,14.4,5,20.9c3,6.5,7,12.1,12.1,16.8c5,4.7,10.9,8.5,17.6,11.2c6.7,2.7,13.8,4.1,21.3,4.1
			h31.8c9.2,0,17.1,3.3,23.7,9.9c6.6,6.6,10,14.5,10.3,23.7v9c0,0.9-0.1,1.8-0.2,2.8c-0.1,1-0.2,1.9-0.2,2.8
			c-1.4,8.3-5.3,15.1-11.6,20.4c-6.3,5.3-13.6,8-21.9,8H3470v22.4h83.1c7.7,0,15-1.4,21.7-4.3c6.7-2.9,12.7-6.8,17.9-11.8
			c5.2-5,9.3-10.8,12.3-17.4c3-6.6,4.5-13.8,4.5-21.5v-0.9V602v-11.6C3609.2,583,3607.6,576,3604.5,569.5z"/>
	</g>
	<g>
		<path class="st2" d="M136.1,488.9l73.3-136l59.1-109.6c67.4-125.1,238.4-125.1,305.9,0l59.1,109.6l19.3,35.8
			c-3.6-11.5-8.5-22.8-14.9-33.9L560.8,219l-62.1-109.3c-71-124.8-250.8-124.8-321.8,0L114.7,219L37.6,354.7
			c-52.6,92.6-9.2,203.9,78.4,242.6C111.4,561.8,117.2,524,136.1,488.9z"/>
		<path class="st3" d="M710.5,491.1l-73.8-136.9l-59.5-110.3c-67.9-126-240.1-126-308,0l-59.5,110.3L136,491.1
			c-45.9,85.1-15.5,185.8,53.6,232.7c2.3-7.9,5.4-15.8,9.3-23.5l66-128.9L337.8,429c35.7-69.6,135.2-69.6,170.9,0l72.9,142.5
			l66,128.9c3.9,7.7,7,15.5,9.3,23.5C726,676.9,756.4,576.2,710.5,491.1z"/>
	</g>
</g>
</svg>
